<svg width="159" height="50" viewBox="0 0 159 50" fill="none" xmlns="http://www.w3.org/2000/svg">
<path d="M78.06 17L72.56 23.94L78.06 31H74.2L69.6 24.82V31H66.36V17H69.6V23.22L74.22 17H78.06ZM82.5609 31.26C81.1609 31.26 80.0543 30.7867 79.2409 29.84C78.4276 28.8933 78.0209 27.6733 78.0209 26.18C78.0209 24.7133 78.4409 23.5 79.2809 22.54C80.1209 21.58 81.2276 21.1 82.6009 21.1C83.2809 21.1 83.8876 21.2467 84.4209 21.54C84.9543 21.8333 85.3543 22.2333 85.6209 22.74V21.36H88.6609V31H85.6209V29.64C85.3543 30.12 84.9409 30.5133 84.3809 30.82C83.8343 31.1133 83.2276 31.26 82.5609 31.26ZM83.4409 28.72C84.1743 28.72 84.7409 28.48 85.1409 28C85.5409 27.52 85.7409 26.9133 85.7409 26.18C85.7409 25.46 85.5409 24.86 85.1409 24.38C84.7409 23.9 84.1743 23.66 83.4409 23.66C82.7476 23.66 82.1876 23.8933 81.7609 24.36C81.3476 24.8267 81.1409 25.4333 81.1409 26.18C81.1409 26.9267 81.3476 27.54 81.7609 28.02C82.1876 28.4867 82.7476 28.72 83.4409 28.72ZM91.2014 31V21.36H94.2614V22.76C94.8347 21.6533 95.8747 21.1 97.3814 21.1C99.7281 21.1 100.901 22.4133 100.901 25.04V31H97.8214V26.04C97.8214 25.2133 97.6881 24.6133 97.4214 24.24C97.1681 23.8667 96.7347 23.68 96.1214 23.68C94.8814 23.68 94.2614 24.44 94.2614 25.96V31H91.2014ZM110.25 21.36H113.31V30.34C113.31 32.2067 112.69 33.5733 111.45 34.44C110.637 35.0133 109.49 35.3 108.01 35.3C106.557 35.3 105.397 35.04 104.53 34.52C104.037 34.2133 103.63 33.82 103.31 33.34C102.99 32.86 102.823 32.36 102.81 31.84H105.93C106.077 32.6533 106.757 33.06 107.97 33.06C109.49 33.06 110.25 32.28 110.25 30.72V29.44C110.01 29.9067 109.603 30.2867 109.03 30.58C108.47 30.86 107.87 31 107.23 31C105.83 31 104.717 30.5467 103.89 29.64C103.063 28.72 102.65 27.5333 102.65 26.08C102.65 24.64 103.077 23.4533 103.93 22.52C104.783 21.5733 105.897 21.1 107.27 21.1C107.937 21.1 108.537 21.2533 109.07 21.56C109.617 21.8533 110.01 22.2467 110.25 22.74V21.36ZM108.07 28.64C108.777 28.64 109.337 28.4 109.75 27.92C110.177 27.44 110.39 26.84 110.39 26.12C110.39 25.4 110.177 24.8 109.75 24.32C109.337 23.84 108.777 23.6 108.07 23.6C107.39 23.6 106.837 23.84 106.41 24.32C105.997 24.7867 105.79 25.3867 105.79 26.12C105.79 26.8533 105.997 27.46 106.41 27.94C106.837 28.4067 107.39 28.64 108.07 28.64ZM119.67 31.26C118.27 31.26 117.164 30.7867 116.35 29.84C115.537 28.8933 115.13 27.6733 115.13 26.18C115.13 24.7133 115.55 23.5 116.39 22.54C117.23 21.58 118.337 21.1 119.71 21.1C120.39 21.1 120.997 21.2467 121.53 21.54C122.064 21.8333 122.464 22.2333 122.73 22.74V21.36H125.77V31H122.73V29.64C122.464 30.12 122.05 30.5133 121.49 30.82C120.944 31.1133 120.337 31.26 119.67 31.26ZM120.55 28.72C121.284 28.72 121.85 28.48 122.25 28C122.65 27.52 122.85 26.9133 122.85 26.18C122.85 25.46 122.65 24.86 122.25 24.38C121.85 23.9 121.284 23.66 120.55 23.66C119.857 23.66 119.297 23.8933 118.87 24.36C118.457 24.8267 118.25 25.4333 118.25 26.18C118.25 26.9267 118.457 27.54 118.87 28.02C119.297 28.4867 119.857 28.72 120.55 28.72ZM128.311 31V21.36H131.371V23.38C131.531 22.6867 131.857 22.1533 132.351 21.78C132.857 21.3933 133.417 21.2 134.031 21.2C134.351 21.2 134.617 21.2267 134.831 21.28V24.12C134.471 24.08 134.164 24.06 133.911 24.06C132.217 24.06 131.371 25.1333 131.371 27.28V31H128.311ZM144.896 29.86C143.936 30.82 142.643 31.3 141.016 31.3C139.39 31.3 138.09 30.82 137.116 29.86C136.143 28.9 135.656 27.6733 135.656 26.18C135.656 24.6867 136.143 23.4667 137.116 22.52C138.09 21.56 139.39 21.08 141.016 21.08C142.643 21.08 143.936 21.56 144.896 22.52C145.87 23.4667 146.356 24.6867 146.356 26.18C146.356 27.6733 145.87 28.9 144.896 29.86ZM141.016 28.7C141.723 28.7 142.283 28.4667 142.696 28C143.11 27.5333 143.316 26.9267 143.316 26.18C143.316 25.4333 143.11 24.8267 142.696 24.36C142.283 23.8933 141.723 23.66 141.016 23.66C140.296 23.66 139.73 23.8933 139.316 24.36C138.916 24.8267 138.716 25.4333 138.716 26.18C138.716 26.9267 138.916 27.5333 139.316 28C139.73 28.4667 140.296 28.7 141.016 28.7ZM156.928 29.86C155.968 30.82 154.674 31.3 153.048 31.3C151.421 31.3 150.121 30.82 149.148 29.86C148.174 28.9 147.688 27.6733 147.688 26.18C147.688 24.6867 148.174 23.4667 149.148 22.52C150.121 21.56 151.421 21.08 153.048 21.08C154.674 21.08 155.968 21.56 156.928 22.52C157.901 23.4667 158.388 24.6867 158.388 26.18C158.388 27.6733 157.901 28.9 156.928 29.86ZM153.048 28.7C153.754 28.7 154.314 28.4667 154.728 28C155.141 27.5333 155.348 26.9267 155.348 26.18C155.348 25.4333 155.141 24.8267 154.728 24.36C154.314 23.8933 153.754 23.66 153.048 23.66C152.328 23.66 151.761 23.8933 151.348 24.36C150.948 24.8267 150.748 25.4333 150.748 26.18C150.748 26.9267 150.948 27.5333 151.348 28C151.761 28.4667 152.328 28.7 153.048 28.7Z" fill="white"/>
<rect width="50" height="50" rx="22" fill="#6440FB"/>
<path d="M39.9448 15.0583C39.971 15.0219 39.9885 14.9805 39.9962 14.9371C40.0038 14.8937 40.0015 14.8492 39.9892 14.8067C39.977 14.7642 39.9552 14.7247 39.9252 14.6909C39.8953 14.657 39.858 14.6297 39.8158 14.6107L38.3466 13.9361C38.272 13.9005 38.214 13.8402 38.1837 13.7667L37.8376 12.8971C37.8174 12.8467 37.7836 12.8023 37.7396 12.7681C37.6955 12.7338 37.6428 12.7111 37.5865 12.702L35.4793 12.3504C34.7871 10.3202 32.6052 10.0324 31.7536 10.0005C31.7082 9.9981 31.6628 10.0047 31.6203 10.0199C31.5778 10.0351 31.5392 10.0585 31.5069 10.0886C31.4746 10.1188 31.4493 10.1549 31.4328 10.1948C31.4163 10.2347 31.4088 10.2774 31.4108 10.3202C31.533 12.9418 33.6979 13.7859 33.6979 13.7859C32.7308 17.3827 28.659 13.7859 23.9763 13.7859C19.2937 13.7859 10.0812 18.6295 12.0153 27.6455C13.6237 35.1395 11.0482 37.6621 10.132 38.3015C10.0681 38.3464 10.0237 38.4117 10.0071 38.4851C9.99059 38.5586 10.003 38.6353 10.0421 38.7007C10.0812 38.7662 10.1443 38.816 10.2196 38.8408C10.2949 38.8656 10.3771 38.8637 10.451 38.8354C14.1734 37.3999 14.7095 34.1037 14.4584 28.3169C14.2039 22.4181 17.2171 20.2217 17.2171 20.2217C17.6582 23.0991 20.7799 22.8753 20.5085 26.1684C20.2743 28.9851 18.2316 31.5172 17.6446 32.195C17.6 32.2463 17.5743 32.3099 17.5712 32.3762C17.5682 32.4424 17.588 32.5079 17.6276 32.5627C20.4101 36.4408 20.2065 38.5253 20.0979 39.0273C20.0811 39.1079 20.0981 39.1916 20.1454 39.2607L20.5696 39.8617C20.5991 39.904 20.6392 39.9387 20.6864 39.9628C20.7336 39.987 20.7864 39.9998 20.8401 40.0001C20.8938 40.0004 20.9467 39.9882 20.9943 39.9646C21.0418 39.9411 21.0824 39.9068 21.1125 39.8649C21.523 39.299 22.1169 37.9882 21.3195 35.6926C20.1997 32.4635 20.0979 31.8561 22.8125 29.1705C24.7805 27.2234 25.3031 24.3908 25.4422 22.9808C25.527 22.1304 25.3438 21.1649 25.0045 20.3784C24.8103 19.9243 24.5335 19.5056 24.1867 19.1411C24.0146 18.9602 23.8223 18.7973 23.6133 18.6551C23.4707 18.5592 23.2705 18.3961 23.1009 18.3514C23.9763 18.5752 24.733 18.9908 25.3472 19.6302C25.8901 20.1897 26.3176 20.8771 26.5959 21.5869C26.623 21.6604 26.6502 21.7276 26.6773 21.7979C28.2857 21.2704 29.4496 20.5414 29.4496 20.5414C29.4496 20.5414 33.8132 22.7379 32.5476 23.0991C31.6518 23.3549 31.3905 22.7602 31.3124 22.3894C31.2961 22.3152 31.2516 22.2492 31.1872 22.2039C31.1228 22.1585 31.0431 22.1369 30.9629 22.1432L30.2877 22.1975C30.2416 22.2014 30.1969 22.2144 30.1565 22.2357C30.1161 22.2571 30.081 22.2862 30.0534 22.3212C30.0258 22.3563 30.0065 22.3964 29.9965 22.439C29.9866 22.4816 29.9864 22.5257 29.9959 22.5684C30.1214 23.1407 30.5727 24.2373 32.1404 24.2373C33.837 24.2373 34.3969 23.0736 34.5529 22.6068C34.5707 22.5512 34.5716 22.4921 34.5554 22.4361C34.5392 22.3801 34.5066 22.3296 34.4613 22.2903L33.1278 21.1201C35.4182 19.1539 36.4871 15.5571 36.4871 15.5571C38.7843 16.131 39.6394 15.4868 39.9448 15.0583Z" fill="white"/>
</svg>
